<svg width="77" height="77" xmlns="http://www.w3.org/2000/svg" xmlns:xlink="http://www.w3.org/1999/xlink" xml:space="preserve" overflow="hidden"><g transform="translate(-555 -630)"><path d="M593.5 638.021C576.662 638.016 563.008 651.662 563.003 668.5 562.998 685.338 576.644 698.992 593.482 698.997 610.32 699.002 623.974 685.356 623.979 668.518 623.979 668.514 623.979 668.511 623.979 668.508 623.988 651.679 610.353 638.03 593.524 638.021 593.516 638.021 593.508 638.021 593.5 638.021ZM593.5 697.392C577.548 697.397 564.612 684.469 564.607 668.517 564.602 652.565 577.53 639.629 593.482 639.624 609.434 639.619 622.37 652.547 622.375 668.499 622.375 668.503 622.375 668.507 622.375 668.51 622.359 684.452 609.442 697.373 593.5 697.394Z" stroke="#3F8D85" stroke-width="0.802072"/><path d="M593.901 654.475 592.297 654.475 592.297 667.698 579.062 667.698 579.062 669.302 592.297 669.302 592.297 682.548 593.901 682.548 593.901 669.302 607.135 669.302 607.135 667.698 593.901 667.698 593.901 654.475Z" stroke="#3F8D85" stroke-width="0.802072"/></g></svg>