<svg width="96" height="96" xmlns="http://www.w3.org/2000/svg" xmlns:xlink="http://www.w3.org/1999/xlink" xml:space="preserve" overflow="hidden"><g transform="translate(-837 -196)"><path d="M885 206C864.007 205.994 846.984 223.007 846.978 244 846.972 264.993 863.985 282.016 884.978 282.022 905.971 282.028 922.994 265.015 923 244.022 923 244.018 923 244.014 923 244.01 923.011 223.029 906.011 206.011 885.03 206 885.02 206 885.01 206 885 206ZM885 280.021C865.112 280.027 848.984 263.909 848.978 244.021 848.972 224.133 865.09 208.005 884.978 207.999 904.866 207.993 920.994 224.111 921 243.999 921 244.004 921 244.008 921 244.013 920.98 263.889 904.876 279.998 885 280.024Z" stroke="#3F8D85"/><path d="M899.041 228.557 884.998 242.6 870.955 228.557 869.541 229.971 883.584 244.014 869.541 258.057 870.955 259.471 884.998 245.428 899.041 259.471 900.455 258.057 886.412 244.014 900.455 229.971 899.041 228.557Z" stroke="#3F8D85"/></g></svg>