<svg width="96" height="96" xmlns="http://www.w3.org/2000/svg" xmlns:xlink="http://www.w3.org/1999/xlink" xml:space="preserve" overflow="hidden"><g transform="translate(-746 -194)"><path d="M794 204C773.007 203.994 755.984 221.007 755.978 242 755.972 262.993 772.985 280.016 793.978 280.022 814.971 280.028 831.994 263.015 832 242.022 832 242.018 832 242.014 832 242.01 832.011 221.029 815.011 204.011 794.03 204 794.02 204 794.01 204 794 204ZM794 278.021C774.112 278.027 757.984 261.909 757.978 242.021 757.972 222.133 774.09 206.005 793.978 205.999 813.866 205.993 829.994 222.111 830 241.999 830 242.004 830 242.008 830 242.013 829.98 261.889 813.876 277.998 794 278.024Z" stroke="#3F8D85"/><path d="M787.5 254.086 775 241.586 773.586 243 787.5 256.914 816.914 227.5 815.5 226.086 787.5 254.086Z" stroke="#3F8D85"/></g></svg>