<svg width="80" height="80" xmlns="http://www.w3.org/2000/svg" xmlns:xlink="http://www.w3.org/1999/xlink" xml:space="preserve" overflow="hidden"><g transform="translate(-1177 -36)"><path d="M1216.98 44.3333C1199.5 44.3333 1185.33 58.5032 1185.33 75.9825 1185.33 93.4618 1199.5 107.632 1216.98 107.632 1234.46 107.632 1248.63 93.4618 1248.63 75.9825 1248.64 58.511 1234.48 44.3412 1217.01 44.3333 1217 44.3333 1216.99 44.3333 1216.98 44.3333ZM1216.98 105.965C1200.42 105.965 1187 92.5414 1187 75.9825 1187 59.4236 1200.42 46 1216.98 46 1233.54 46 1246.96 59.4236 1246.96 75.9825 1246.95 92.5336 1233.53 105.946 1216.98 105.965Z" fill="#FFF5C8"/><path d="M1218.12 58.5658C1212.62 57.9394 1207.65 61.8927 1207.02 67.3957 1206.98 67.7714 1206.96 68.1493 1206.96 68.5275L1208.62 68.5275C1208.63 63.9113 1212.37 60.1707 1216.99 60.1725 1221.6 60.1744 1225.34 63.9181 1225.34 68.5342 1225.34 71.4096 1223.86 74.0826 1221.43 75.6108 1218.18 77.5906 1216.18 81.1092 1216.15 84.9142L1217.82 84.9142C1217.85 81.6825 1219.55 78.698 1222.32 77.0225 1227.01 74.0793 1228.42 67.8913 1225.48 63.2012 1223.86 60.6195 1221.15 58.9149 1218.12 58.5692Z" fill="#FFF5C8"/><path d="M1218.67 91.8333C1218.67 92.7538 1217.92 93.5 1217 93.5 1216.08 93.5 1215.33 92.7538 1215.33 91.8333 1215.33 90.9129 1216.08 90.1667 1217 90.1667 1217.92 90.1667 1218.67 90.9129 1218.67 91.8333Z" fill="#FFF5C8"/></g></svg>